<?xml version="1.0" encoding="UTF-8"?>
<svg width="16px" height="18px" viewBox="0 0 16 18" version="1.1" xmlns="http://www.w3.org/2000/svg" xmlns:xlink="http://www.w3.org/1999/xlink">
    <!-- Generator: Sketch 52.5 (67469) - http://www.bohemiancoding.com/sketch -->
    <title>Shape</title>
    <desc>Created with Sketch.</desc>
    <g id="Visual-Logistics" stroke="none" stroke-width="1" fill="none" fill-rule="evenodd">
        <g id="01.-Tài-khoản-Logistic" transform="translate(-1319.000000, -21.000000)" fill="#717286" fill-rule="nonzero">
            <path d="M1327,39 C1328.03529,39 1328.88235,38.19 1328.88235,37.2 L1325.11765,37.2 C1325.11765,38.19 1325.96471,39 1327,39 Z M1333.11765,33.6 L1333.11765,28.65 C1333.11765,25.86 1331.14118,23.61 1328.41176,22.98 L1328.41176,22.35 C1328.41176,21.63 1327.75294,21 1327,21 C1326.24706,21 1325.58824,21.63 1325.58824,22.35 L1325.58824,22.98 C1322.85882,23.61 1320.88235,25.86 1320.88235,28.65 L1320.88235,33.6 L1319,35.4 L1319,36.3 L1335,36.3 L1335,35.4 L1333.11765,33.6 Z M1331.23529,34.5 L1322.76471,34.5 L1322.76471,28.65 C1322.76471,26.4 1324.64706,24.6 1327,24.6 C1329.35294,24.6 1331.23529,26.4 1331.23529,28.65 L1331.23529,34.5 Z" id="Shape"></path>
        </g>
    </g>
</svg>